<svg width="5317" height="2991" viewBox="0 0 5317 2991" fill="none" xmlns="http://www.w3.org/2000/svg">
<g clip-path="url(#clip0_802_8)">
<rect x="-781" y="-429" width="6342" height="3647" fill="url(#paint0_linear_802_8)"/>
<path d="M5317 0H0V2991H5317V0Z" fill="white"/>
<path d="M2259.73 3771.98C2703.26 3771.98 3062.81 3412.41 3062.81 2968.84C3062.81 2525.28 2703.26 2165.71 2259.73 2165.71C1816.19 2165.71 1456.64 2525.28 1456.64 2968.84C1456.64 3412.41 1816.19 3771.98 2259.73 3771.98Z" fill="#EF5814"/>
<path d="M4884.99 3068.54C4970.64 3068.54 5040.07 2999.11 5040.07 2913.46C5040.07 2827.8 4970.64 2758.37 4884.99 2758.37C4799.35 2758.37 4729.91 2827.8 4729.91 2913.46C4729.91 2999.11 4799.35 3068.54 4884.99 3068.54Z" fill="#EF5814"/>
<path d="M1988.54 875.1C2071.13 875.1 2138.08 808.144 2138.08 725.55C2138.08 642.956 2071.13 576 1988.54 576C1905.95 576 1839 642.956 1839 725.55C1839 808.144 1905.95 875.1 1988.54 875.1Z" fill="#EF5814"/>
<path d="M3006.5 819C3140.43 819 3249 710.429 3249 576.5C3249 442.571 3140.43 334 3006.5 334C2872.57 334 2764 442.571 2764 576.5C2764 710.429 2872.57 819 3006.5 819Z" fill="#EF5814"/>
</g>
<defs>
<linearGradient id="paint0_linear_802_8" x1="492" y1="-31" x2="5006" y2="3163" gradientUnits="userSpaceOnUse">
<stop stop-color="white"/>
<stop offset="1" stop-color="#F8F8F8"/>
</linearGradient>
<clipPath id="clip0_802_8">
<rect width="5317" height="2991" fill="white"/>
</clipPath>
</defs>
</svg>
